Coordinates
version=1
nRows=60
nColumns=12
inDegrees=yes

Units are S.I. units (second, meters, Newtons, ...)
Angles are in degrees

endheader
time	SC_y	SC_z	SC_x	AC_y	AC_z	AC_x	GH_y	GH_z	GH_yy	EL_x	PS_y
       0.0              -55.77          9.622          67.66          52.67          8.935          19.56          152.1          82.43          43.28          51.36          99.36
   0.02649              -55.76          9.622          67.66          52.66          8.933          19.56          152.0          82.42          43.28          51.37          99.35
   0.05298              -55.76          9.622          67.66          52.66           8.93          19.55          152.0          82.41          43.29          51.37          99.35
   0.07947              -55.75          9.623          67.66          52.66          8.928          19.55          152.0           82.4          43.29          51.38          99.34
     0.106              -55.75          9.623          67.65          52.66          8.925          19.54          152.0           82.4          43.29          51.39          99.33
    0.1325              -55.75          9.623          67.65          52.66          8.922          19.54          152.0          82.39           43.3           51.4          99.32
    0.1589              -55.74          9.623          67.65          52.66          8.919          19.53          152.0          82.38           43.3           51.4          99.31
    0.1854              -55.73          9.623          67.65          52.65          8.915          19.52          152.0          82.37           43.3          51.41           99.3
    0.2119              -55.73          9.623          67.65          52.65          8.912          19.51          152.0          82.35          43.31          51.42          99.28
    0.2384              -55.72          9.624          67.65          52.65          8.908          19.51          151.9          82.34          43.31          51.43          99.27
    0.2649              -55.72          9.624          67.65          52.65          8.903           19.5          151.9          82.33          43.32          51.44          99.26
    0.2914              -55.71          9.624          67.65          52.65          8.899          19.49          151.9          82.31          43.32          51.45          99.24
    0.3179               -55.7          9.624          67.65          52.64          8.894          19.48          151.9           82.3          43.33          51.47          99.23
    0.3444              -55.69          9.625          67.65          52.64          8.889          19.47          151.9          82.28          43.34          51.48          99.21
    0.3709              -55.68          9.625          67.65          52.64          8.883          19.46          151.8          82.26          43.34           51.5          99.19
    0.3974              -55.67          9.625          67.65          52.63          8.877          19.44          151.8          82.24          43.35          51.51          99.17
    0.4239              -55.66          9.626          67.65          52.63           8.87          19.43          151.8          82.22          43.36          51.53          99.15
    0.4504              -55.65          9.626          67.65          52.63          8.863          19.41          151.7           82.2          43.37          51.55          99.12
    0.4768              -55.64          9.627          67.65          52.62          8.855           19.4          151.7          82.17          43.38          51.57           99.1
    0.5033              -55.62          9.627          67.64          52.62          8.846          19.38          151.7          82.15          43.39          51.59          99.07
    0.5298              -55.61          9.628          67.64          52.61          8.836          19.36          151.6          82.12           43.4          51.61          99.04
    0.5563              -55.59          9.629          67.64          52.61          8.826          19.34          151.6          82.08          43.41          51.64           99.0
    0.5828              -55.57          9.629          67.64           52.6          8.814          19.32          151.5          82.05          43.43          51.67          98.96
    0.6093              -55.55           9.63          67.64          52.59          8.801          19.29          151.5           82.0          43.44          51.71          98.92
    0.6358              -55.53          9.631          67.64          52.59          8.787          19.26          151.4          81.96          43.46          51.74          98.87
    0.6623               -55.5          9.632          67.64          52.58          8.771          19.23          151.3          81.91          43.48          51.78          98.82
    0.6888              -55.47          9.633          67.63          52.57          8.753          19.19          151.3          81.85           43.5          51.83          98.76
    0.7153              -55.44          9.634          67.63          52.56          8.733          19.15          151.2          81.79          43.53          51.88          98.69
    0.7418               -55.4          9.635          67.63          52.55           8.71           19.1          151.1          81.71          43.56          51.94          98.62
    0.7683              -55.36          9.637          67.62          52.53          8.684          19.05          151.0          81.63          43.59          52.01          98.53
    0.7947              -55.31          9.639          67.62          52.52          8.654          18.99          150.8          81.54          43.63          52.08          98.44
    0.8212              -55.26          9.641          67.62           52.5           8.62          18.92          150.7          81.43          43.67          52.17          98.32
    0.8477               -55.2          9.643          67.61          52.48          8.581          18.84          150.5           81.3          43.72          52.27          98.19
    0.8742              -55.12          9.646          67.61          52.45          8.535          18.75          150.3          81.16          43.77          52.39          98.04
    0.9007              -55.04          9.649           67.6          52.42          8.482          18.64          150.1          80.99          43.84          52.52          97.87
    0.9272              -54.94          9.653          67.59          52.39          8.419          18.51          149.8          80.79          43.92          52.69          97.66
    0.9537              -54.82          9.657          67.58          52.35          8.344          18.36          149.5          80.55          44.01          52.88          97.42
    0.9802              -54.67          9.662          67.57           52.3          8.254          18.17          149.1          80.27          44.12          53.11          97.12
     1.007               -54.5          9.669          67.56          52.24          8.146          17.95          148.6          79.92          44.25          53.39          96.76
     1.033              -54.28          9.676          67.54          52.17          8.013          17.68          148.0           79.5          44.42          53.73          96.33
      1.06              -54.02          9.686          67.52          52.09           7.85          17.35          147.3          78.99          44.62          54.15          95.79
     1.086              -53.69          9.698           67.5          51.98          7.646          16.93          146.4          78.34          44.87          54.67          95.12
     1.113              -53.28          9.713          67.46          51.84          7.389           16.4          145.3          77.52          45.19          55.33          94.27
     1.139              -52.75          9.732          67.42          51.67          7.062          15.74          143.9          76.49          45.59          56.17          93.19
     1.166              -52.08          9.757          67.37          51.44          6.644          14.88          142.1          75.16          46.11          57.24          91.82
     1.192              -51.22          9.789           67.3          51.16          6.107          13.79          139.7          73.46          46.77          58.61          90.05
     1.219              -50.11          9.829          67.22          50.79          5.422          12.39          136.7          71.28          47.62          60.37          87.79
     1.245              -48.73           9.88          67.11          50.33           4.56          10.63          133.0          68.55          48.68          62.58          84.96
     1.272              -47.04          9.942          66.98          49.77           3.51          8.484          128.4          65.22          49.98          65.28           81.5
     1.298              -45.08          10.01          66.83          49.12          2.293          5.998          123.1          61.36          51.48           68.4          77.49
     1.325              -42.96          10.09          66.66          48.42          0.975          3.306          117.4          57.18          53.11          71.78          73.15
     1.351              -40.84          10.17           66.5          47.72         -0.343         0.6142          111.6           53.0          54.74          75.16          68.81
     1.378              -38.88          10.24          66.35          47.07          -1.56         -1.872          106.3          49.14          56.24          78.28           64.8
     1.404              -37.19           10.3          66.22          46.51          -2.61         -4.016          101.7           45.8          57.54          80.98          61.35
     1.431               -35.8          10.35          66.11          46.05         -3.472         -5.776          97.97          43.07          58.61          83.19          58.51
     1.457               -34.7          10.39          66.03          45.68         -4.157         -7.176          94.98           40.9          59.45          84.94          56.25
     1.484              -33.83          10.43          65.96           45.4         -4.694         -8.272          92.64          39.19          60.11          86.32          54.49
      1.51              -33.16          10.45          65.91          45.17         -5.112         -9.125          90.82          37.87          60.63          87.39          53.11
     1.537              -32.64          10.47          65.87           45.0         -5.439         -9.793          89.39          36.83          61.03          88.23          52.03
     1.563              -32.22          10.48          65.83          44.86         -5.696         -10.32          88.27          36.02          61.35          88.89          51.19
